# Blender 4.4.0
# www.blender.org
mtllib neww.mtl
o INT_WHEEL.007
v -0.001434 -0.046351 -0.194891
v 0.016870 -0.042909 -0.182045
v 0.009879 -0.037340 -0.161261
v -0.012746 -0.037340 -0.161261
v -0.019737 -0.042909 -0.182045
v -0.001434 0.058252 -0.194891
v 0.016870 0.054810 -0.182045
v 0.009879 0.049241 -0.161261
v -0.012746 0.049241 -0.161261
v -0.019737 0.054810 -0.182045
v -0.001434 0.148842 -0.142589
v 0.016870 0.139438 -0.133185
v 0.009879 0.124223 -0.117971
v -0.012746 0.124223 -0.117971
v -0.019737 0.139438 -0.133185
v -0.001434 0.201143 -0.052000
v 0.016870 0.188298 -0.048558
v 0.009879 0.167514 -0.042989
v -0.012746 0.167514 -0.042989
v -0.019737 0.188298 -0.048558
v -0.001434 0.201143 0.052604
v 0.016870 0.188298 0.049162
v 0.009879 0.167514 0.043593
v -0.012746 0.167514 0.043593
v -0.019737 0.188298 0.049162
v -0.001434 0.148842 0.143193
v 0.016870 0.139438 0.133790
v 0.009879 0.124223 0.118575
v -0.012746 0.124223 0.118575
v -0.019737 0.139438 0.133790
v -0.001434 0.058252 0.195495
v 0.016870 0.054810 0.182650
v 0.009879 0.049241 0.161866
v -0.012746 0.049241 0.161866
v -0.019737 0.054810 0.182650
v -0.001434 -0.046351 0.195495
v 0.016870 -0.042909 0.182650
v 0.009879 -0.037340 0.161866
v -0.012746 -0.037340 0.161866
v -0.019737 -0.042909 0.182650
v -0.001434 -0.136941 0.143193
v 0.016870 -0.127537 0.133790
v 0.009879 -0.112322 0.118575
v -0.012746 -0.112322 0.118575
v -0.019737 -0.127537 0.133790
v -0.001434 -0.189242 0.052604
v 0.016870 -0.176397 0.049162
v 0.009879 -0.155613 0.043593
v -0.012746 -0.155613 0.043593
v -0.019737 -0.176397 0.049162
v -0.001434 -0.189242 -0.051999
v 0.016870 -0.176397 -0.048558
v 0.009879 -0.155613 -0.042989
v -0.012746 -0.155613 -0.042989
v -0.019737 -0.176397 -0.048558
v -0.001434 -0.136941 -0.142589
v 0.016870 -0.127537 -0.133185
v 0.009879 -0.112322 -0.117971
v -0.012746 -0.112322 -0.117971
v -0.019737 -0.127537 -0.133185
v -0.009660 -0.054566 -0.078345
v 0.005454 -0.054566 -0.078345
v -0.009660 0.066467 -0.060214
v 0.005454 0.066467 -0.060214
v -0.009660 0.002531 -0.069792
v 0.005454 0.002531 -0.069792
v 0.005454 -0.037780 -0.165698
v 0.005454 -0.083249 -0.146586
v -0.009660 -0.083249 -0.146586
v -0.009660 -0.037780 -0.165698
v 0.014614 -0.048670 -0.071500
v 0.014614 0.001657 -0.063961
v 0.014614 0.060571 -0.055135
v -0.009660 -0.054566 0.078951
v 0.005454 -0.054566 0.078951
v -0.009660 0.066467 0.060820
v 0.005454 0.066467 0.060820
v -0.009660 0.002531 0.070397
v 0.005454 0.002531 0.070397
v 0.005454 -0.037780 0.166303
v 0.005454 -0.083249 0.147192
v -0.009660 -0.083249 0.147192
v -0.009660 -0.037780 0.166303
v 0.014614 -0.048670 0.072105
v 0.014614 0.001657 0.064566
v 0.014614 0.060571 0.055741
vn 0.5744 -0.0000 -0.8185
vn 0.9478 -0.0000 0.3188
vn -0.0000 -0.0000 1.0000
vn -0.9478 -0.0000 0.3188
vn -0.5744 -0.0000 -0.8185
vn 0.5744 0.4093 -0.7089
vn 0.9478 -0.1594 0.2761
vn -0.0000 -0.5000 0.8660
vn -0.9478 -0.1594 0.2761
vn -0.5744 0.4093 -0.7089
vn 0.5744 0.7089 -0.4093
vn 0.9478 -0.2761 0.1594
vn -0.0000 -0.8660 0.5000
vn -0.9478 -0.2761 0.1594
vn -0.5744 0.7089 -0.4093
vn 0.5744 0.8185 -0.0000
vn 0.9478 -0.3188 -0.0000
vn -0.0000 -1.0000 -0.0000
vn -0.9478 -0.3188 -0.0000
vn -0.5744 0.8185 -0.0000
vn 0.5744 0.7089 0.4093
vn 0.9478 -0.2761 -0.1594
vn -0.0000 -0.8660 -0.5000
vn -0.9478 -0.2761 -0.1594
vn -0.5744 0.7089 0.4093
vn 0.5744 0.4093 0.7089
vn 0.9478 -0.1594 -0.2761
vn -0.0000 -0.5000 -0.8660
vn -0.9478 -0.1594 -0.2761
vn -0.5744 0.4093 0.7089
vn 0.5744 -0.0000 0.8185
vn 0.9478 -0.0000 -0.3188
vn -0.0000 -0.0000 -1.0000
vn -0.9478 -0.0000 -0.3188
vn -0.5744 -0.0000 0.8185
vn 0.5744 -0.4093 0.7089
vn 0.9478 0.1594 -0.2761
vn -0.0000 0.5000 -0.8660
vn -0.9478 0.1594 -0.2761
vn -0.5744 -0.4093 0.7089
vn 0.5744 -0.7089 0.4093
vn 0.9478 0.2761 -0.1594
vn -0.0000 0.8660 -0.5000
vn -0.9478 0.2761 -0.1594
vn -0.5744 -0.7089 0.4093
vn 0.5744 -0.8185 -0.0000
vn 0.9478 0.3188 -0.0000
vn -0.0000 1.0000 -0.0000
vn -0.9478 0.3188 -0.0000
vn -0.5744 -0.8185 -0.0000
vn 0.5744 -0.7089 -0.4093
vn 0.9478 0.2761 0.1594
vn -0.0000 0.8660 0.5000
vn -0.9478 0.2761 0.1594
vn -0.5744 -0.7089 -0.4093
vn 0.5744 -0.4093 -0.7089
vn 0.9478 0.1594 0.2761
vn -0.0000 0.5000 0.8660
vn -0.9478 0.1594 0.2761
vn -0.5744 -0.4093 -0.7089
vn -1.0000 -0.0000 -0.0000
vn -0.0000 0.9219 -0.3875
vn 0.5413 -0.8408 -0.0000
vn -0.0000 0.1481 -0.9890
vn 1.0000 -0.0000 -0.0000
vn -0.0000 -0.3875 -0.9219
vn -0.0000 -0.9219 0.3875
vn 0.5413 0.8408 -0.0000
vn 0.5413 0.1246 -0.8316
vn -0.0000 0.9219 0.3875
vn -0.0000 0.1481 0.9890
vn -0.0000 -0.3875 0.9219
vn -0.0000 -0.9219 -0.3875
vn 0.5413 0.1246 0.8316
vt 0.248102 0.922356
vt 0.246552 0.931657
s 0
usemtl 
f 1/1/1 6/1/1 7/1/1 2/1/1
f 2/1/2 7/1/2 8/1/2 3/1/2
f 3/1/3 8/1/3 9/1/3 4/1/3
f 4/1/4 9/1/4 10/1/4 5/1/4
f 5/1/5 10/1/5 6/1/5 1/1/5
f 6/1/6 11/1/6 12/1/6 7/1/6
f 7/1/7 12/1/7 13/1/7 8/1/7
f 8/1/8 13/1/8 14/1/8 9/1/8
f 9/1/9 14/1/9 15/1/9 10/1/9
f 10/1/10 15/1/10 11/1/10 6/1/10
f 11/1/11 16/1/11 17/1/11 12/1/11
f 12/1/12 17/1/12 18/1/12 13/1/12
f 13/1/13 18/1/13 19/1/13 14/1/13
f 14/1/14 19/1/14 20/1/14 15/1/14
f 15/1/15 20/1/15 16/1/15 11/1/15
f 16/1/16 21/1/16 22/1/16 17/1/16
f 17/1/17 22/1/17 23/1/17 18/1/17
f 18/1/18 23/1/18 24/1/18 19/1/18
f 19/1/19 24/1/19 25/1/19 20/1/19
f 20/1/20 25/1/20 21/1/20 16/1/20
f 21/1/21 26/1/21 27/1/21 22/1/21
f 22/1/22 27/1/22 28/1/22 23/1/22
f 23/1/23 28/1/23 29/1/23 24/1/23
f 24/1/24 29/1/24 30/1/24 25/1/24
f 25/1/25 30/1/25 26/1/25 21/1/25
f 26/1/26 31/1/26 32/1/26 27/1/26
f 27/1/27 32/1/27 33/1/27 28/1/27
f 28/1/28 33/1/28 34/1/28 29/1/28
f 29/1/29 34/1/29 35/1/29 30/1/29
f 30/1/30 35/1/30 31/1/30 26/1/30
f 31/1/31 36/1/31 37/1/31 32/1/31
f 32/1/32 37/1/32 38/1/32 33/1/32
f 33/1/33 38/1/33 39/1/33 34/1/33
f 34/1/34 39/1/34 40/1/34 35/1/34
f 35/1/35 40/1/35 36/1/35 31/1/35
f 36/1/36 41/1/36 42/1/36 37/1/36
f 37/1/37 42/1/37 43/1/37 38/1/37
f 38/1/38 43/1/38 44/1/38 39/1/38
f 39/1/39 44/1/39 45/1/39 40/1/39
f 40/1/40 45/1/40 41/1/40 36/1/40
f 41/1/41 46/1/41 47/1/41 42/1/41
f 42/1/42 47/1/42 48/1/42 43/1/42
f 43/1/43 48/1/43 49/1/43 44/1/43
f 44/1/44 49/1/44 50/1/44 45/1/44
f 45/1/45 50/1/45 46/1/45 41/1/45
f 46/1/46 51/1/46 52/1/46 47/1/46
f 47/1/47 52/1/47 53/1/47 48/1/47
f 48/1/48 53/1/48 54/1/48 49/1/48
f 49/1/49 54/1/49 55/1/49 50/1/49
f 50/1/50 55/1/50 51/1/50 46/1/50
f 51/1/51 56/1/51 57/1/51 52/1/51
f 52/1/52 57/1/52 58/1/52 53/1/52
f 53/1/53 58/1/53 59/1/53 54/1/53
f 54/1/54 59/1/54 60/1/54 55/1/54
f 55/1/55 60/1/55 56/1/55 51/1/55
f 56/1/56 1/1/56 2/1/56 57/1/56
f 57/1/57 2/1/57 3/1/57 58/1/57
f 58/1/58 3/1/58 4/1/58 59/1/58
f 59/1/59 4/1/59 5/1/59 60/1/59
f 60/1/60 5/1/60 1/1/60 56/1/60
f 65/2/61 78/2/61 76/2/61 63/2/61
f 65/2/62 66/2/62 67/2/62 70/2/62
f 63/2/48 76/2/48 77/2/48 64/2/48
f 84/2/63 75/2/63 62/2/63 71/2/63
f 63/2/64 64/2/64 66/2/64 65/2/64
f 61/2/61 74/2/61 78/2/61 65/2/61
f 73/2/65 86/2/65 85/2/65 72/2/65
f 70/2/66 67/2/66 68/2/66 69/2/66
f 66/2/65 62/2/65 68/2/65 67/2/65
f 61/2/61 65/2/61 70/2/61 69/2/61
f 62/2/67 61/2/67 69/2/67 68/2/67
f 64/2/68 77/2/68 86/2/68 73/2/68
f 73/2/69 72/2/69 66/2/69 64/2/69
f 72/2/69 71/2/69 62/2/69 66/2/69
f 72/2/65 85/2/65 84/2/65 71/2/65
f 78/2/70 83/2/70 80/2/70 79/2/70
f 76/2/71 78/2/71 79/2/71 77/2/71
f 83/2/72 82/2/72 81/2/72 80/2/72
f 79/2/65 80/2/65 81/2/65 75/2/65
f 74/2/61 82/2/61 83/2/61 78/2/61
f 75/2/73 81/2/73 82/2/73 74/2/73
f 86/2/74 77/2/74 79/2/74 85/2/74
f 85/2/74 79/2/74 75/2/74 84/2/74
f 74/2/18 61/2/18 62/2/18 75/2/18
